HIERARCHY
ROOT Hips
{
	OFFSET 0.000000 0.000000 0.000000
	CHANNELS 6 Xposition Yposition Zposition Xrotation Yrotation Zrotation
	JOINT LeftUpLeg_virtual
	{
		OFFSET 0.000000 0.000000 0.000000
		CHANNELS 3 Xrotation Yrotation Zrotation
		JOINT LeftUpLeg
		{
			OFFSET 10.205400 -3.823500 0.155100
			CHANNELS 3 Xrotation Yrotation Zrotation
			JOINT LeftLeg
			{
				OFFSET 0.708757 -12.982077 0.567790
				CHANNELS 3 Xrotation Yrotation Zrotation
				JOINT LeftFoot
				{
					OFFSET -0.708756 -10.717838 -2.184338
					CHANNELS 3 Xrotation Yrotation Zrotation
					JOINT LeftToeBase
					{
						OFFSET 0.108149 -7.191104 7.560241
						CHANNELS 3 Xrotation Yrotation Zrotation
						JOINT LeftToe_End
						{
							OFFSET 0.070230 0.081724 4.490308
							CHANNELS 3 Xrotation Yrotation Zrotation
							End Site
							{
								OFFSET 0 0 0
							}
						}
					}
				}
			}
		}
	}
	JOINT RightUpLeg_virtual
	{
		OFFSET 0.000000 0.000000 0.000000
		CHANNELS 3 Xrotation Yrotation Zrotation
		JOINT RightUpLeg
		{
			OFFSET -10.205400 -3.823500 0.005500
			CHANNELS 3 Xrotation Yrotation Zrotation
			JOINT RightLeg
			{
				OFFSET -0.708756 -12.982134 0.610632
				CHANNELS 3 Xrotation Yrotation Zrotation
				JOINT RightFoot
				{
					OFFSET 0.708754 -10.717769 -1.945823
					CHANNELS 3 Xrotation Yrotation Zrotation
					JOINT RightToeBase
					{
						OFFSET -0.108140 -7.191069 7.372968
						CHANNELS 3 Xrotation Yrotation Zrotation
						JOINT RightToe_End
						{
							OFFSET -0.070227 0.081735 4.479403
							CHANNELS 3 Xrotation Yrotation Zrotation
							End Site
							{
								OFFSET 0 0 0
							}
						}
					}
				}
			}
		}
	}
	JOINT Spine_virtual
	{
		OFFSET 0.000000 0.000000 0.000000
		CHANNELS 3 Xrotation Yrotation Zrotation
		JOINT Spine
		{
			OFFSET 0.000000 6.876099 0.125700
			CHANNELS 3 Xrotation Yrotation Zrotation
			JOINT Spine1
			{
				OFFSET 0.000000 5.730043 0.104720
				CHANNELS 3 Xrotation Yrotation Zrotation
				JOINT Spine1_split
				{
					OFFSET 0.000000 5.730043 0.104720
					CHANNELS 3 Xrotation Yrotation Zrotation
					JOINT Spine2
					{
						OFFSET 0.000000 5.730043 0.104720
						CHANNELS 3 Xrotation Yrotation Zrotation
						JOINT Neck_virtual
						{
							OFFSET 0.000000 0.000000 0.000000
							CHANNELS 3 Xrotation Yrotation Zrotation
							JOINT Neck
							{
								OFFSET 0.000000 10.314075 0.188496
								CHANNELS 3 Xrotation Yrotation Zrotation
								JOINT Head
								{
									OFFSET 0.000000 7.643700 -2.377400
									CHANNELS 3 Xrotation Yrotation Zrotation
									JOINT HeadTop_End
									{
										OFFSET 0.000000 43.788605 -13.619600
										CHANNELS 3 Xrotation Yrotation Zrotation
										End Site
										{
											OFFSET 0 0 0
										}
									}
								}
							}
						}
						JOINT LeftShoulder_virtual
						{
							OFFSET 0.000000 0.000000 0.000000
							CHANNELS 3 Xrotation Yrotation Zrotation
							JOINT LeftShoulder
							{
								OFFSET 2.196100 4.412489 0.087492
								CHANNELS 3 Xrotation Yrotation Zrotation
								JOINT LeftShoulder_split
								{
									OFFSET 2.196100 4.412489 0.087492
									CHANNELS 3 Xrotation Yrotation Zrotation
									JOINT LeftArm
									{
										OFFSET 8.771219 -2.981674 -0.026999
										CHANNELS 3 Xrotation Yrotation Zrotation
										JOINT LeftForeArm
										{
											OFFSET 8.512804 0.000000 -0.000000
											CHANNELS 3 Xrotation Yrotation Zrotation
											JOINT LeftHand
											{
												OFFSET 18.484802 0.000000 -0.000000
												CHANNELS 3 Xrotation Yrotation Zrotation
												End Site
												{
													OFFSET 0 0 0
												}
											}
										}
									}
								}
							}
						}
						JOINT RightShoulder_virtual
						{
							OFFSET 0.000000 0.000000 0.000000
							CHANNELS 3 Xrotation Yrotation Zrotation
							JOINT RightShoulder
							{
								OFFSET -2.196100 4.412496 0.070690
								CHANNELS 3 Xrotation Yrotation Zrotation
								JOINT RightShoulder_split
								{
									OFFSET -2.196100 4.412496 0.070690
									CHANNELS 3 Xrotation Yrotation Zrotation
									JOINT RightArm
									{
										OFFSET -8.771282 -2.981682 -0.094208
										CHANNELS 3 Xrotation Yrotation Zrotation
										JOINT RightForeArm
										{
											OFFSET -8.494598 0.000000 0.000000
											CHANNELS 3 Xrotation Yrotation Zrotation
											JOINT RightHand
											{
												OFFSET -18.483803 0.000000 0.000001
												CHANNELS 3 Xrotation Yrotation Zrotation
												End Site
												{
													OFFSET 0 0 0
												}
											}
										}
									}
								}
							}
						}
					}
				}
			}
		}
	}
}
MOTION
Frames: 6
Frame Time: 0.03333333
0.624319 32.109200 2.244150 0.000000 0.000000 0.000000 22.731390 14.431802 2.232654 -43.896492 12.150960 19.058574 36.561016 5.805901 -8.413163 -2.220620 28.354017 -18.817545 -6.517985 -0.026591 -0.463198 0.000000 0.000000 0.000000 24.769199 13.791917 2.049027 -57.059916 -10.119924 -11.641040 35.041360 8.508630 -5.152659 -6.207906 -10.577328 2.664162 6.094372 0.498201 -1.681479 0.000000 0.000000 0.000000 21.501010 12.881679 3.854212 12.292180 -1.379366 1.209423 8.775752 2.217559 -2.967763 0.597123 -0.586599 0.658919 0.000000 0.000000 0.000000 9.661975 2.167311 -3.387650 -7.681368 5.664461 0.045690 -23.433392 -1.213701 -9.512951 0.000000 0.000000 0.000000 10.718306 1.964074 -2.822057 1.432413 4.412444 -8.711291 -0.311061 -2.453252 -1.398314 -28.825871 -1.152207 -58.590189 2.090830 -41.568029 0.016823 0.000000 0.000000 0.000000 9.306158 1.626050 -3.053701 4.246900 23.186935 3.672717 -0.215162 4.787379 -0.524170 -20.549770 -14.191857 63.049811 -0.288450 36.160008 1.049498 0.000000 0.000000 0.000000 
0.729045 32.496429 3.122561 0.000000 0.000000 0.000000 22.058267 13.905930 2.510322 -44.281991 10.867155 17.317014 34.220802 7.148190 -8.031537 -1.957957 28.767363 -17.427277 -5.463091 0.038405 -0.802561 0.000000 0.000000 0.000000 24.802526 12.978627 2.300281 -54.591547 -10.321520 -12.161014 32.614966 8.165935 -5.198165 -5.292663 -10.760828 2.358076 3.779854 0.407692 -1.215994 0.000000 0.000000 0.000000 22.030456 12.745317 3.701693 11.716318 -0.758934 1.609166 8.729149 2.437412 -2.842648 0.335070 0.413335 1.101310 0.000000 0.000000 0.000000 9.606458 2.322302 -3.312582 -7.344064 5.135722 -0.103721 -23.635226 -1.371795 -9.673328 0.000000 0.000000 0.000000 10.619027 2.121712 -2.740921 1.480344 5.052000 -8.220551 -1.354196 -0.671038 -1.411785 -27.232784 1.103837 -57.349492 1.446927 -40.107687 -0.301255 0.000000 0.000000 0.000000 9.374250 1.834092 -2.987352 4.466885 22.925996 3.591777 -1.118993 4.574638 -1.596006 -21.553996 -16.412533 62.223419 -0.344865 36.051811 1.137837 0.000000 0.000000 0.000000 
0.867944 32.936825 4.259492 0.000000 0.000000 0.000000 21.050284 15.276690 2.819147 -45.339708 9.322000 14.143172 31.507004 7.903386 -7.406094 0.407180 28.463219 -18.615317 -2.890822 0.001987 -0.961692 0.000000 0.000000 0.000000 24.019798 13.456684 2.709454 -50.292124 -11.312435 -13.816865 30.144364 7.777243 -4.998310 -6.049481 -11.142981 1.910917 0.896422 0.333251 -0.630738 0.000000 0.000000 0.000000 22.402136 13.179270 3.683648 11.368021 0.388429 2.188510 8.709417 2.951794 -2.384361 0.337887 0.596693 1.010787 0.000000 0.000000 0.000000 9.609876 2.787711 -2.829563 -7.186712 4.345176 -0.734532 -24.605208 -1.642785 -10.440637 0.000000 0.000000 0.000000 10.377456 2.606935 -2.339305 1.462797 5.048679 -8.026971 -1.786480 0.592177 -1.180009 -23.799369 4.040706 -55.214334 0.793318 -39.600259 -0.598797 0.000000 0.000000 0.000000 9.426470 2.352916 -2.553831 4.760915 22.409347 2.955181 -1.801824 4.360514 -2.309051 -24.145272 -18.679994 59.977769 -0.630096 36.963286 1.375051 0.000000 0.000000 0.000000 
1.035692 33.161335 5.589613 0.000000 0.000000 0.000000 19.805785 17.523417 3.195759 -46.885342 8.083812 10.395374 29.589271 7.939507 -6.786662 3.797533 27.315374 -21.546032 -1.292468 -0.183700 -0.299211 0.000000 0.000000 0.000000 22.577849 14.930056 3.199829 -45.467869 -13.035980 -16.090903 28.783015 7.560324 -4.481001 -8.543499 -11.683706 1.716737 -1.354244 0.329032 -0.200213 0.000000 0.000000 0.000000 22.115635 14.423684 3.714256 11.355260 1.889838 2.800949 8.690142 3.661250 -1.706329 0.466874 0.262013 0.773030 0.000000 0.000000 0.000000 9.675300 3.473660 -2.031005 -7.321731 3.381050 -1.647009 -26.086630 -2.183406 -11.612114 0.000000 0.000000 0.000000 10.012075 3.349993 -1.684452 1.445424 4.340441 -7.975085 -1.522898 0.869358 -0.856935 -19.551304 6.617114 -53.240321 0.367785 -40.176262 -0.777483 0.000000 0.000000 0.000000 9.459819 3.112082 -1.846854 5.017137 21.894475 1.922152 -2.478714 4.187982 -2.598129 -27.928403 -19.795867 56.600019 -0.967814 38.402626 1.598737 0.000000 0.000000 0.000000 
1.172736 33.010017 7.034978 0.000000 0.000000 0.000000 18.398931 19.785021 3.614342 -48.577791 7.700150 7.006750 29.109044 7.754863 -6.387931 5.359086 25.889552 -23.410122 -1.987828 -0.457589 1.159823 0.000000 0.000000 0.000000 21.093291 16.721816 3.610095 -41.113630 -15.333017 -18.034597 29.146439 7.628742 -3.836657 -13.257096 -12.492116 1.879437 -2.576436 0.411582 -0.221898 0.000000 0.000000 0.000000 21.113062 16.230053 3.653916 11.592270 3.613160 3.399484 8.646584 4.465782 -0.901063 0.260542 0.439291 0.357034 0.000000 0.000000 0.000000 9.734029 4.252614 -1.076877 -7.755425 2.277942 -2.600203 -27.672795 -3.125520 -12.829739 0.000000 0.000000 0.000000 9.586141 4.223320 -0.869434 1.465002 3.198088 -7.936099 -1.187126 0.531021 -0.474109 -15.177596 8.247911 -52.062482 0.328958 -41.492887 -0.722947 0.000000 0.000000 0.000000 9.436666 3.998828 -0.992432 5.124643 21.579547 0.849024 -2.819881 4.025724 -2.801505 -32.335926 -18.818614 52.645589 -1.162428 39.952300 1.635482 0.000000 0.000000 0.000000 
1.314974 32.468468 8.568448 0.000000 0.000000 0.000000 16.950653 21.494631 3.902159 -49.941954 8.362548 4.957620 30.419347 7.572997 -6.343744 3.937712 24.775470 -22.894106 -3.629001 -0.742593 2.346678 0.000000 0.000000 0.000000 19.674037 18.718589 3.631226 -37.222987 -17.887224 -18.875168 31.217981 7.921783 -3.419916 -20.383989 -13.673987 1.943428 -2.563895 0.593899 -0.746044 0.000000 0.000000 0.000000 19.469920 17.885882 3.429235 11.883908 5.392390 3.918926 8.492752 5.245142 -0.099760 0.686950 0.916107 -0.100245 0.000000 0.000000 0.000000 9.665286 4.982448 -0.172763 -8.406688 1.160448 -3.376630 -29.009524 -4.561676 -13.648490 0.000000 0.000000 0.000000 9.107314 5.079166 -0.018427 1.519511 1.824069 -7.630102 -0.943584 -0.215794 -0.116347 -10.880645 8.561765 -51.612560 0.587050 -43.357863 -0.435244 0.000000 0.000000 0.000000 9.335693 4.866180 -0.168155 5.042371 21.523845 -0.048663 -2.778641 4.130432 -2.988820 -36.242633 -15.222829 49.159218 -1.017183 41.425876 1.338957 0.000000 0.000000 0.000000 
